<svg xmlns="http://www.w3.org/2000/svg" width="19.559" height="34.558" viewBox="0 0 19.559 34.558">
  <g id="audio" transform="translate(0 -0.001)">
    <path id="Path_37605" data-name="Path 37605" d="M283.871,85.3a5.723,5.723,0,0,0,5.719-5.71V69.334a5.719,5.719,0,1,0-11.438,0V79.586a5.723,5.723,0,0,0,5.719,5.71Zm-4.382-7.132h2.443a.668.668,0,0,0,0-1.337h-2.443V74.09h1.105a.669.669,0,0,0,0-1.337h-1.105V70h2.443a.669.669,0,0,0,0-1.337h-2.389a4.377,4.377,0,0,1,8.656,0h-2.545a.669.669,0,0,0,0,1.337h2.594v2.75h-1.257a.669.669,0,0,0,0,1.337h1.252v2.737h-2.59a.668.668,0,0,0,0,1.337h2.594v1.413a4.382,4.382,0,0,1-8.763,0Z" transform="translate(-274.091 -63.614)" fill="#fff"/>
    <path id="Path_37606" data-name="Path 37606" d="M246.7,259.11a.669.669,0,0,0-1.337,0,8.442,8.442,0,1,1-16.884,0,.669.669,0,0,0-1.337,0,9.807,9.807,0,0,0,9.111,9.758v7.288h-5.162a.669.669,0,1,0,0,1.337h11.66a.669.669,0,1,0,0-1.337h-5.162v-7.288a9.806,9.806,0,0,0,9.111-9.758Z" transform="translate(-227.136 -242.934)" fill="#fff"/>
  </g>
</svg>
