<svg xmlns="http://www.w3.org/2000/svg" width="30.735" height="28.695" viewBox="0 0 30.735 28.695">
  <g id="background_fil" data-name="background fil" transform="translate(-8920 21110)">
    <path id="Path_38162" data-name="Path 38162" d="M105.482,28.707a1.118,1.118,0,0,0,.8-.33l11.709-11.705,1.408,1.408a.88.88,0,0,0,1.244-1.244L104.072.269a.879.879,0,1,0-1.244,1.244l1.409,1.409L92.529,14.63a1.131,1.131,0,0,0,0,1.6l12.151,12.151a1.128,1.128,0,0,0,.8.33Zm0-24.54,10.555,10.555H94.922Z" transform="translate(8827.8 -21110.012)" fill="#fff"/>
    <path id="Path_38164" data-name="Path 38164" d="M548.681,344.079l-1.407-3.9a.374.374,0,0,0-.7,0l-1.408,3.9a1.87,1.87,0,1,0,3.518,0Z" transform="translate(8401.942 -21429.664)" fill="#fff"/>
  </g>
</svg>
