<svg xmlns="http://www.w3.org/2000/svg" width="246.402" height="492.802" viewBox="0 0 246.402 492.802">
  <g id="battery" transform="translate(-5719.268 4733)">
    <path id="Path_37742" data-name="Path 37742" d="M299.6,33.6a17.018,17.018,0,0,0-16.8,16.8V89.6H243.6a17.018,17.018,0,0,0-16.8,16.8V509.6a17.018,17.018,0,0,0,16.8,16.8H456.4a17.018,17.018,0,0,0,16.8-16.8V106.4a17.018,17.018,0,0,0-16.8-16.8H417.2V50.4a17.018,17.018,0,0,0-16.8-16.8ZM305.2,56h89.6V89.6H305.2Zm-56,56H450.8V504H249.2Zm134.4,44.8L288.4,330.4h50.4L316.4,459.2l95.2-173.6H361.2Z" transform="translate(5492.469 -4766.602)" fill="#fff"/>
    <path id="Path_37743" data-name="Path 37743" d="M5809.578-4299.2l98.035-177.456h-51.5l22.958-132.781-98.035,178.076h52.74Z" transform="translate(-2 -4.674)" fill="#79ef6b"/>
  </g>
</svg>
