<svg xmlns="http://www.w3.org/2000/svg" width="25.607" height="25.607" viewBox="0 0 25.607 25.607">
  <path id="brightness-new" d="M94.137,13.539a.8.8,0,0,1,0-1.132l2.475-2.475h0a.8.8,0,1,1,1.131,1.131l-2.475,2.475a.8.8,0,0,1-1.132,0ZM82.112,24.432l-2.475,2.474a.8.8,0,1,0,1.131,1.132l2.475-2.475h0a.8.8,0,0,0-1.132-1.131Zm0-10.893h0a.8.8,0,0,0,1.132-1.132L80.769,9.933a.8.8,0,1,0-1.131,1.131Zm6.578-2.256a.8.8,0,0,0,.8-.8v-3.5a.8.8,0,0,0-1.6,0v3.5a.8.8,0,0,0,.8.8Zm-7.7,7.7a.8.8,0,0,0-.8-.8h-3.5a.8.8,0,1,0,0,1.6h3.5a.8.8,0,0,0,.8-.8Zm14.282,5.447a.8.8,0,0,0-1.132,1.132l2.475,2.475a.8.8,0,0,0,1.131-1.132Zm5.424-6.246h-3.5a.8.8,0,1,0,0,1.6h3.5a.8.8,0,1,0,0-1.6Zm-6.206.8a5.8,5.8,0,1,1-1.7-4.1,5.8,5.8,0,0,1,1.7,4.1Zm-1.6,0h0a4.2,4.2,0,1,0-1.23,2.966,4.2,4.2,0,0,0,1.23-2.966Zm-4.2,7.7a.8.8,0,0,0-.8.8v3.5a.8.8,0,1,0,1.6,0v-3.5a.8.8,0,0,0-.8-.8Z" transform="translate(-75.886 -6.197)" fill="#333"/>
</svg>
