<svg xmlns="http://www.w3.org/2000/svg" width="32.53" height="32.53" viewBox="0 0 32.53 32.53">
  <path id="brightness" d="M99.071,15.524a1.016,1.016,0,0,1,0-1.438l3.145-3.144h0a1.017,1.017,0,1,1,1.437,1.437l-3.144,3.144a1.018,1.018,0,0,1-1.438,0ZM83.8,29.363l-3.144,3.143a1.017,1.017,0,1,0,1.437,1.438L85.233,30.8h0A1.016,1.016,0,0,0,83.8,29.363Zm0-13.838h0a1.017,1.017,0,0,0,1.438-1.438l-3.144-3.144a1.017,1.017,0,1,0-1.437,1.437Zm8.357-2.866a1.017,1.017,0,0,0,1.017-1.016V7.2a1.017,1.017,0,0,0-2.033,0v4.447a1.017,1.017,0,0,0,1.016,1.016Zm-9.786,9.785a1.016,1.016,0,0,0-1.014-1.016H76.9a1.016,1.016,0,1,0,0,2.033H81.35a1.014,1.014,0,0,0,1.016-1.016Zm18.143,6.919A1.017,1.017,0,0,0,99.071,30.8l3.144,3.144a1.017,1.017,0,0,0,1.437-1.438Zm6.89-7.935h-4.446a1.016,1.016,0,1,0,0,2.033H107.4a1.016,1.016,0,1,0,0-2.033Zm-7.884,1.016a7.373,7.373,0,1,1-2.16-5.2,7.364,7.364,0,0,1,2.16,5.2Zm-2.033,0h0a5.337,5.337,0,1,0-1.563,3.768,5.331,5.331,0,0,0,1.563-3.768Zm-5.331,9.785a1.017,1.017,0,0,0-1.016,1.016v4.446a1.017,1.017,0,1,0,2.033,0V33.245a1.016,1.016,0,0,0-1.017-1.016Z" transform="translate(-75.886 -6.197)" fill="#fff"/>
</svg>
