<svg xmlns="http://www.w3.org/2000/svg" width="35.736" height="28.59" viewBox="0 0 35.736 28.59">
  <path id="camera" d="M1.778,8.939V23.222A3.569,3.569,0,0,0,5.341,26.8H30.377a3.575,3.575,0,0,0,3.563-3.58V8.939a3.57,3.57,0,0,0-3.565-3.58H27.683a4.679,4.679,0,0,1-2.7-.95L21.908,1.953a1.559,1.559,0,0,0-.471-.167H14.282a1.348,1.348,0,0,0-.47.167L10.743,4.409a4.741,4.741,0,0,1-2.7.95H5.345a3.572,3.572,0,0,0-3.567,3.58Zm-1.787,0A5.359,5.359,0,0,1,5.345,3.573H8.039a2.987,2.987,0,0,0,1.587-.558L12.695.557A2.914,2.914,0,0,1,14.282,0h7.155a2.989,2.989,0,0,1,1.587.558L26.1,3.014a2.916,2.916,0,0,0,1.587.558h2.693a5.357,5.357,0,0,1,5.352,5.367V23.222a5.362,5.362,0,0,1-5.35,5.367H5.341a5.356,5.356,0,0,1-5.35-5.367ZM17.859,23.228a8.041,8.041,0,1,1,8.04-8.041A8.041,8.041,0,0,1,17.859,23.228Zm0-1.787a6.254,6.254,0,1,0-6.254-6.254A6.254,6.254,0,0,0,17.859,21.441Z" transform="translate(0.009 0.001)" fill="#fff"/>
</svg>
