<svg xmlns="http://www.w3.org/2000/svg" width="25.945" height="25.838" viewBox="0 0 25.945 25.838">
  <g id="close" transform="translate(0.607 0.607)">
    <path id="Path_425" data-name="Path 425" d="M1.311,24.73a1.273,1.273,0,0,1-.9-2.173L22.6.372a1.272,1.272,0,0,1,1.8,1.8L2.211,24.356a1.276,1.276,0,0,1-.9.373Zm0,0" transform="translate(-0.039 0.001)" fill="#fff" stroke="#fff" stroke-width="1"/>
    <path id="Path_426" data-name="Path 426" d="M23.5,24.73a1.262,1.262,0,0,1-.9-.373L.412,2.172a1.273,1.273,0,0,1,1.8-1.8L24.4,22.557a1.273,1.273,0,0,1-.9,2.173Zm0,0" transform="translate(-0.039 0.001)" fill="#fff" stroke="#fff" stroke-width="1"/>
  </g>
</svg>
