<svg xmlns="http://www.w3.org/2000/svg" width="27.256" height="21.908" viewBox="0 0 27.256 21.908">
  <path id="crop" d="M155.853,117.766l-10.115-3.642,10.115-3.642a1.081,1.081,0,1,0-.724-2.032l-12.579,4.528-5.976-2.161a4.216,4.216,0,0,0,1.319-1.859,4.323,4.323,0,1,0-5.576,2.626l7.046,2.54-7.046,2.529a4.363,4.363,0,0,0,1.47,8.462,4.412,4.412,0,0,0,1.48-.26,4.323,4.323,0,0,0,1.308-7.435l5.976-2.161,12.579,4.528h0a1.078,1.078,0,0,0,.724-2.032Zm-24.12-11.012a1.947,1.947,0,0,1,2.8-1.275,2.193,2.193,0,0,1-1.481,4.128,2.161,2.161,0,0,1-1.318-2.853Zm2.053,11.811h0a2.42,2.42,0,1,1-.692.162,1.957,1.957,0,0,1,.692-.162Z" transform="translate(-129.381 -103.207)" fill="#fff"/>
</svg>
