<svg xmlns="http://www.w3.org/2000/svg" width="20.578" height="25.783" viewBox="0 0 20.578 25.783">
  <path id="delete" d="M189.808,58.578H185.2v-.645A1.934,1.934,0,0,0,183.267,56h-3.636a1.933,1.933,0,0,0-1.934,1.934v.645H173.09a1.933,1.933,0,0,0-1.934,1.934v1.147a1.934,1.934,0,0,0,1.031,1.7v15.2a3.223,3.223,0,0,0,3.223,3.223H187.48A3.223,3.223,0,0,0,190.7,78.56v-15.2a1.934,1.934,0,0,0,1.031-1.7V60.511a1.934,1.934,0,0,0-1.926-1.934Zm-10.822-.645a.645.645,0,0,1,.645-.645h3.636a.645.645,0,0,1,.645.645v.645h-4.925Zm-6.541,2.578a.645.645,0,0,1,.645-.645h16.718a.645.645,0,0,1,.645.645v1.147a.645.645,0,0,1-.645.645H173.09a.645.645,0,0,1-.645-.645Zm15.039,19.982H175.415a1.934,1.934,0,0,1-1.934-1.934V63.593h15.937V78.56a1.934,1.934,0,0,1-1.934,1.934Zm-5.39-13.536v10.16a.645.645,0,1,1-1.289,0V66.957a.645.645,0,1,1,1.289,0Zm4.641,0v10.16a.645.645,0,0,1-1.289,0V66.957a.645.645,0,1,1,1.289,0Zm-9.282,0v10.16a.645.645,0,0,1-1.289,0V66.957a.645.645,0,1,1,1.289,0Z" transform="translate(-171.157 -55.999)" fill="#fff"/>
</svg>
