<svg xmlns="http://www.w3.org/2000/svg" width="47.191" height="46.129" viewBox="0 0 47.191 46.129">
  <g id="device" transform="translate(-2678 21022.129)">
    <path id="Path_37749" data-name="Path 37749" d="M132.512,44.76h-2.131l-.07-.21,1.782-1.816a1.9,1.9,0,0,0,0-2.724L128.6,36.482a1.939,1.939,0,0,0-2.725,0l-1.816,1.782-.21-.035V36.1a1.82,1.82,0,0,0-1.886-1.816h-5.31a1.8,1.8,0,0,0-1.886,1.816v2.131l-.21.07-1.816-1.782a1.939,1.939,0,0,0-2.724,0l-3.528,3.493a1.9,1.9,0,0,0,0,2.724l1.782,1.816-.035.21H106.1a1.82,1.82,0,0,0-1.816,1.886v5.274a1.8,1.8,0,0,0,1.816,1.886h2.131l.07.21-1.782,1.816a1.9,1.9,0,0,0,0,2.724l3.528,3.528a1.939,1.939,0,0,0,2.724,0l1.816-1.782.21.07V62.5a1.82,1.82,0,0,0,1.886,1.816h5.274a1.8,1.8,0,0,0,1.886-1.816V60.374l.21-.07,1.816,1.782a1.939,1.939,0,0,0,2.724,0l3.528-3.528a1.9,1.9,0,0,0,0-2.724l-1.782-1.816.07-.21h2.131a1.82,1.82,0,0,0,1.816-1.886V46.646a1.849,1.849,0,0,0-1.851-1.886ZM119.308,56.5a7.2,7.2,0,1,1,7.2-7.2A7.208,7.208,0,0,1,119.308,56.5Z" transform="translate(2575.151 -21042.807)" fill="#fff"/>
    <path id="Path_37748" data-name="Path 37748" d="M2678.823-20970.439v-3.545l14.589-14.59v-15.4h2.33v15.4l12.915,12.914-1.568,1.676-9.827-9.625-1.52.609h-1.621l-2.026-.609-10.637,10.029v3.141Z" transform="translate(-0.323 -6.499)" fill="#fff" stroke="#fff" stroke-width="1"/>
    <g id="Ellipse_174" data-name="Ellipse 174" transform="translate(2706 -20983)" fill="#171717" stroke="#fff" stroke-width="2">
      <circle cx="3.5" cy="3.5" r="3.5" stroke="none"/>
      <circle cx="3.5" cy="3.5" r="2.5" fill="none"/>
    </g>
    <circle id="Ellipse_175" data-name="Ellipse 175" cx="1.564" cy="1.564" r="1.564" transform="translate(2692.892 -20993.891)" fill="#171717"/>
    <g id="Group_160257" data-name="Group 160257" transform="translate(2709.958 -21022.129) rotate(50)">
      <path id="Path_37750" data-name="Path 37750" d="M11.849,0A15.953,15.953,0,0,0,.15,5.094a.551.551,0,0,0,.047.8l.853.74h0a.557.557,0,0,0,.776-.053,13.755,13.755,0,0,1,20.046,0,.557.557,0,0,0,.776.053l.853-.74h0a.551.551,0,0,0,.047-.8A15.953,15.953,0,0,0,11.849,0Z" transform="translate(0 0)" fill="#fff"/>
      <path id="Path_37751" data-name="Path 37751" d="M8.35,0A11.077,11.077,0,0,0,.139,3.637a.557.557,0,0,0,.065.8l.871.717h0a.557.557,0,0,0,.758-.065,8.886,8.886,0,0,1,13,0,.557.557,0,0,0,.776.065l.871-.717a.557.557,0,0,0,.065-.8A11.077,11.077,0,0,0,8.35,0Z" transform="translate(3.499 4.982)" fill="#fff"/>
      <path id="Path_37752" data-name="Path 37752" d="M4.855,0A6.113,6.113,0,0,0,.116,2.245a.592.592,0,0,0,.124.829l.942.628a.557.557,0,0,0,.729-.095,3.845,3.845,0,0,1,5.865,0A.557.557,0,0,0,8.5,3.7l.942-.628a.592.592,0,0,0,.124-.829A6.114,6.114,0,0,0,4.856,0Z" transform="translate(6.994 9.964)" fill="#fff"/>
    </g>
  </g>
</svg>
