<svg xmlns="http://www.w3.org/2000/svg" width="42.498" height="45.129" viewBox="0 0 42.498 45.129">
  <g id="device_close" transform="translate(20639.498 -4377)">
    <path id="Path_37749" data-name="Path 37749" d="M132.512,44.76h-2.131l-.07-.21,1.782-1.816a1.9,1.9,0,0,0,0-2.724L128.6,36.482a1.939,1.939,0,0,0-2.725,0l-1.816,1.782-.21-.035V36.1a1.82,1.82,0,0,0-1.886-1.816h-5.31a1.8,1.8,0,0,0-1.886,1.816v2.131l-.21.07-1.816-1.782a1.939,1.939,0,0,0-2.724,0l-3.528,3.493a1.9,1.9,0,0,0,0,2.724l1.782,1.816-.035.21H106.1a1.82,1.82,0,0,0-1.816,1.886v5.274a1.8,1.8,0,0,0,1.816,1.886h2.131l.07.21-1.782,1.816a1.9,1.9,0,0,0,0,2.724l3.528,3.528a1.939,1.939,0,0,0,2.724,0l1.816-1.782.21.07V62.5a1.82,1.82,0,0,0,1.886,1.816h5.274a1.8,1.8,0,0,0,1.886-1.816V60.374l.21-.07,1.816,1.782a1.939,1.939,0,0,0,2.724,0l3.528-3.528a1.9,1.9,0,0,0,0-2.724l-1.782-1.816.07-.21h2.131a1.82,1.82,0,0,0,1.816-1.886V46.646a1.849,1.849,0,0,0-1.851-1.886Zm-13.2,11.74a7.2,7.2,0,1,1,7.2-7.2,7.2,7.2,0,0,1-7.2,7.2Z" transform="translate(-20742.346 4355.322)" fill="#fff"/>
    <path id="Path_37748" data-name="Path 37748" d="M2678.82-20970.4v-3.545l14.589-14.59v-15.4h2.33v15.4l12.915,12.914-1.568,1.676-9.827-9.625-1.52.609h-1.621l-2.026-.609-10.637,10.029v3.141Z" transform="translate(-23317.818 25391.631)" fill="#fff" stroke="#fff" stroke-width="1"/>
    <g id="Ellipse_174" data-name="Ellipse 174" transform="translate(-20611.496 4415.129)" fill="#171717" stroke="#fff" stroke-width="2">
      <circle cx="3.5" cy="3.5" r="3.5" stroke="none"/>
      <circle cx="3.5" cy="3.5" r="2.5" fill="none"/>
    </g>
    <circle id="Ellipse_175" data-name="Ellipse 175" cx="1.564" cy="1.564" r="1.564" transform="translate(-20624.604 4404.238)" fill="#171717"/>
    <g id="Group_160257" data-name="Group 160257" transform="matrix(0.643, 0.766, -0.766, 0.643, -20607.539, 4375)">
      <text id="_" data-name="" transform="matrix(0.643, -0.766, 0.766, 0.643, 14.778, 10.391)" fill="#fff" font-size="18" font-family="icofont, IcoFont"><tspan x="-9" y="0"></tspan></text>
    </g>
  </g>
</svg>
