<svg xmlns="http://www.w3.org/2000/svg" width="29" height="29.002" viewBox="0 0 29 29.002">
  <g id="edit" transform="translate(-3229.461 19830.001)">
    <path id="Path_37692" data-name="Path 37692" d="M328.2,247.857l-2.833-2.833-.922,3.755Z" transform="translate(2917.934 -20062.691)" fill="#fff"/>
    <path id="Path_37693" data-name="Path 37693" d="M347.39,88.36l9.149-9.15,3.468,3.468-9.149,9.15Z" transform="translate(2896.409 -19907.166)" fill="#fff"/>
    <path id="Path_37694" data-name="Path 37694" d="M510.329,46.234a2.436,2.436,0,0,0-1.734.718l-.509.509,3.468,3.468.509-.509h0a2.452,2.452,0,0,0-1.734-4.186Z" transform="translate(2745.68 -19876.234)" fill="#fff"/>
    <path id="Path_37695" data-name="Path 37695" d="M141.695,106.793a.579.579,0,0,0-.579.579v11.85h-23.7v-23.7h11.85a.579.579,0,0,0,0-1.158H116.837a.579.579,0,0,0-.579.579V119.8a.579.579,0,0,0,.579.579H141.7a.579.579,0,0,0,.579-.579V107.372a.579.579,0,0,0-.58-.579Z" transform="translate(3113.203 -19921.379)" fill="#fff"/>
  </g>
</svg>
