<svg xmlns="http://www.w3.org/2000/svg" width="29.714" height="29.714" viewBox="0 0 29.714 29.714">
  <path id="full-screen" d="M98.885,28a.99.99,0,0,0-.887.991v8.583a.991.991,0,1,0,1.981,0V29.984h7.594a.991.991,0,1,0,0-1.981H98.988c-.034,0-.069,0-.1,0Zm19.149,0h0a.992.992,0,0,0,.1,1.981h7.594v7.593h0a.991.991,0,1,0,1.981,0V28.994a.991.991,0,0,0-.991-.991h-8.584c-.034,0-.069,0-.1,0ZM98.978,47.131A.991.991,0,0,0,98,48.142v8.583h0a.991.991,0,0,0,.991.991h8.584a.991.991,0,1,0,0-1.981H99.979V48.142h0a.99.99,0,0,0-1-1.011Zm27.733,0a.99.99,0,0,0-.98,1.011v7.593h-7.594a.991.991,0,1,0,0,1.981h8.584a.991.991,0,0,0,.991-.991V48.142h0a.99.99,0,0,0-1-1.011Z" transform="translate(-97.997 -28.002)" fill="#fff"/>
</svg>
