<svg xmlns="http://www.w3.org/2000/svg" width="60.911" height="60.911" viewBox="0 0 60.911 60.911">
  <g id="help" transform="translate(-116.665 -46.645)">
    <path id="Path_38141" data-name="Path 38141" d="M147.121,46.645A30.456,30.456,0,1,0,177.576,77.1a30.456,30.456,0,0,0-30.456-30.456Zm0,3.044a27.381,27.381,0,1,1-19.385,8.02,27.4,27.4,0,0,1,19.385-8.02Z" transform="translate(0 0)" fill="#fff"/>
    <path id="Path_38142" data-name="Path 38142" d="M332.756,353.042a3.044,3.044,0,1,1-.892-2.153A3.044,3.044,0,0,1,332.756,353.042Z" transform="translate(-182.589 -263.765)" fill="#fff"/>
    <path id="Path_38143" data-name="Path 38143" d="M290.66,151.64c-4.99,0-7.929,2.263-9.3,4.555a9.72,9.72,0,0,0-1.357,4.58,1.523,1.523,0,1,0,3.044,0,6.638,6.638,0,0,1,.928-3.021c.911-1.519,2.541-3.069,6.685-3.069,4.059,0,5.964,1.865,6.53,3.849a4.555,4.555,0,0,1-2.641,5.448,12.943,12.943,0,0,0-6.013,5.632,8.561,8.561,0,0,0-.922,3.342h0a1.523,1.523,0,0,0,3.046,0,4.629,4.629,0,0,1,.6-1.981,9.691,9.691,0,0,1,4.645-4.27,7.752,7.752,0,0,0,4.21-9.01c-.955-3.346-4.381-6.055-9.457-6.055Z" transform="translate(-142.015 -91.293)" fill="#fff" fill-rule="evenodd"/>
  </g>
</svg>
