<svg xmlns="http://www.w3.org/2000/svg" width="34.852" height="26.647" viewBox="0 0 34.852 26.647">
  <path id="image-icon" d="M99.018,85.938a2.852,2.852,0,0,0-2.838,2.851v20.945a2.852,2.852,0,0,0,2.838,2.851h29.175a2.852,2.852,0,0,0,2.838-2.851V88.789a2.852,2.852,0,0,0-2.838-2.851Zm0,1.2h29.175a1.626,1.626,0,0,1,1.636,1.65v20.945a1.626,1.626,0,0,1-1.636,1.65H99.018a1.627,1.627,0,0,1-1.637-1.65V88.789a1.627,1.627,0,0,1,1.637-1.65Zm12.043,3.77a2.5,2.5,0,1,0,.063,0Zm.063,1.2a1.288,1.288,0,1,1-1.272,1.286A1.266,1.266,0,0,1,111.124,92.111Zm6.471,4h0a.6.6,0,0,0-.488.249l-4.635,6.395-3.818-4.306a.6.6,0,0,0-.927.031l-6.053,7.929a.6.6,0,1,0,.957.728l5.606-7.349,3.513,3.962-2.107,2.907a.6.6,0,1,0,.971.705l6.98-9.623,6.975,9.623a.6.6,0,0,0,.975-.705l-7.464-10.3a.6.6,0,0,0-.487-.249Z" transform="translate(-96.18 -85.938)" fill="#fff"/>
</svg>
