<svg xmlns="http://www.w3.org/2000/svg" width="25.606" height="22.414" viewBox="0 0 25.606 22.414">
  <g id="led" transform="translate(-6489.246 18808)">
    <path id="Path_38144" data-name="Path 38144" d="M475.409,299.84a.716.716,0,0,0-.716.716v.1a.716.716,0,0,0,.7.73h.016a.716.716,0,0,0,.715-.7v-.129a.716.716,0,0,0-.716-.716Z" transform="translate(6033.11 -19095.844)" fill="#333"/>
    <path id="Path_38145" data-name="Path 38145" d="M198.694,272.45a.711.711,0,0,0,.85-.549l.014-.063a.716.716,0,0,0-1.4-.3l-.014.066A.716.716,0,0,0,198.694,272.45Z" transform="translate(6296.869 -19068.313)" fill="#333"/>
    <path id="Path_38146" data-name="Path 38146" d="M265.272,421.518l-.052-.03a.716.716,0,1,0-.723,1.236l.063.036a.716.716,0,0,0,.712-1.242Z" transform="translate(6233.912 -19211.77)" fill="#333"/>
    <path id="Path_38147" data-name="Path 38147" d="M463.141,357.71a.717.717,0,0,0-.943.37l-.02.045a.716.716,0,1,0,1.3.6l.035-.076a.716.716,0,0,0-.37-.943Z" transform="translate(6045.109 -19150.979)" fill="#333"/>
    <path id="Path_38148" data-name="Path 38148" d="M427.8,404.816l-.041.037a.716.716,0,0,0,.942,1.077l.057-.051a.716.716,0,1,0-.958-1.064Z" transform="translate(6078.104 -19195.787)" fill="#333"/>
    <path id="Path_38149" data-name="Path 38149" d="M377.553,433.782l-.063.02a.716.716,0,0,0,.219,1.4.7.7,0,0,0,.22-.035l.063-.02a.716.716,0,1,0-.439-1.363Z" transform="translate(6126.286 -19223.553)" fill="#333"/>
    <path id="Path_38150" data-name="Path 38150" d="M199.494,329.649l-.011-.052a.715.715,0,1,0-1.4.275l.016.078a.716.716,0,0,0,.7.565.7.7,0,0,0,.151-.016.715.715,0,0,0,.549-.85Z" transform="translate(6296.929 -19123.674)" fill="#333"/>
    <path id="Path_38151" data-name="Path 38151" d="M320.319,163.271a.682.682,0,0,0,.076,0l.058-.006a.716.716,0,0,0-.135-1.425l-.073.007a.716.716,0,0,0,.074,1.428Z" transform="translate(6181.017 -18964.229)" fill="#333"/>
    <path id="Path_38152" data-name="Path 38152" d="M377.858,169.1l.061.02a.716.716,0,1,0,.444-1.361l-.065-.021a.716.716,0,0,0-.439,1.363Z" transform="translate(6125.934 -18969.822)" fill="#333"/>
    <path id="Path_38153" data-name="Path 38153" d="M222.614,382.517a.716.716,0,0,0-1.172.823l.048.067a.716.716,0,1,0,1.153-.849Z" transform="translate(6274.759 -19174.404)" fill="#333"/>
    <path id="Path_38154" data-name="Path 38154" d="M265.2,180.948a.711.711,0,0,0,.361-.1l.052-.03a.716.716,0,1,0-.712-1.242l-.064.036a.716.716,0,0,0,.362,1.334Z" transform="translate(6233.582 -18981.063)" fill="#333"/>
    <path id="Path_38155" data-name="Path 38155" d="M320.078,439.751l-.065-.007a.716.716,0,0,0-.152,1.424l.065.006a.692.692,0,0,0,.077,0,.716.716,0,0,0,.075-1.427Z" transform="translate(6181.383 -19229.268)" fill="#333"/>
    <path id="Path_38156" data-name="Path 38156" d="M462.358,244.21a.716.716,0,0,0,1.31-.579l-.033-.073a.716.716,0,0,0-1.3.6Z" transform="translate(6044.957 -19041.773)" fill="#333"/>
    <path id="Path_38157" data-name="Path 38157" d="M428.993,196.638a.716.716,0,0,0-.958,1.064l.053.047a.716.716,0,1,0,.951-1.07Z" transform="translate(6077.833 -18997.246)" fill="#333"/>
    <path id="Path_38158" data-name="Path 38158" d="M221.833,219.45a.716.716,0,0,0,1-.158l.037-.05a.716.716,0,0,0-1.153-.849l-.041.057a.716.716,0,0,0,.158,1Z" transform="translate(6274.543 -19017.891)" fill="#333"/>
    <path id="Path_38159" data-name="Path 38159" d="M162.07,119.35a9.61,9.61,0,1,0-9.609,9.61A9.621,9.621,0,0,0,162.07,119.35Zm-9.609,8.178a8.178,8.178,0,1,1,8.177-8.178A8.188,8.188,0,0,1,152.461,127.528Z" transform="translate(6349.588 -18914.547)" fill="#333"/>
    <path id="Path_38160" data-name="Path 38160" d="M74.62,54.292a.716.716,0,0,0,.716-.716,11.371,11.371,0,0,1,22.743,0,.716.716,0,0,0,1.432,0,12.8,12.8,0,0,0-25.606,0,.715.715,0,0,0,.715.716Z" transform="translate(6415.342 -18848.773)" fill="#333"/>
    <path id="Path_38161" data-name="Path 38161" d="M254.373,215.62a4.663,4.663,0,1,0,4.663,4.663A4.668,4.668,0,0,0,254.373,215.62Zm0,7.895a3.232,3.232,0,1,1,3.231-3.232A3.236,3.236,0,0,1,254.373,223.515Z" transform="translate(6247.676 -19015.525)" fill="#333"/>
  </g>
</svg>
