<svg xmlns="http://www.w3.org/2000/svg" width="77.342" height="45.989" viewBox="0 0 77.342 45.989">
  <g id="menu" transform="translate(-120.416 -143.502)">
    <path id="Path_38104" data-name="Path 38104" d="M195.666,267.59H122.507a2.091,2.091,0,0,0,0,4.182h73.159a2.091,2.091,0,0,0,0-4.182Z" transform="translate(0 -103.187)" fill="#fff"/>
    <path id="Path_38105" data-name="Path 38105" d="M195.666,391.7H122.507a2.091,2.091,0,1,0,0,4.182h73.159a2.091,2.091,0,0,0,0-4.182Z" transform="translate(0 -206.392)" fill="#fff"/>
    <path id="Path_38106" data-name="Path 38106" d="M122.517,147.684h73.159a2.091,2.091,0,0,0,0-4.182H122.517a2.091,2.091,0,0,0,0,4.182Z" transform="translate(-0.008)" fill="#fff"/>
  </g>
</svg>
