<svg xmlns="http://www.w3.org/2000/svg" width="38.365" height="80.068" viewBox="0 0 38.365 80.068">
  <g id="mob-wifi" transform="translate(-2747.657 21226)">
    <path id="Path_37744" data-name="Path 37744" d="M275.18,172.2H256.512a6.9,6.9,0,0,0-6.893,6.893v43.675a6.9,6.9,0,0,0,6.893,6.893H275.18a6.9,6.9,0,0,0,6.893-6.893V179.093A6.9,6.9,0,0,0,275.18,172.2Zm-23.086,48.2V181.33h27.5V220.4Zm4.417-45.719H275.18a4.423,4.423,0,0,1,4.411,4.179H252.1a4.423,4.423,0,0,1,4.411-4.179Zm18.668,52.509H256.511a4.422,4.422,0,0,1-4.415-4.314h27.5a4.422,4.422,0,0,1-4.415,4.314Z" transform="translate(2500.994 -21375.592)" fill="#fff"/>
    <path id="Path_37745" data-name="Path 37745" d="M250.512,32.328c-10.757,0-19.182,4.532-19.182,10.317a1.238,1.238,0,0,0,2.475,0c0-1.906,1.668-3.844,4.577-5.316a30.389,30.389,0,0,1,24.261,0c2.909,1.471,4.577,3.409,4.577,5.315a1.238,1.238,0,0,0,2.475,0c0-5.785-8.426-10.317-19.182-10.317Z" transform="translate(2516.327 -21258.328)" fill="#fff"/>
    <path id="Path_37746" data-name="Path 37746" d="M299.034,85.056a1.238,1.238,0,1,0,2.475,0c0-1.889-1.317-3.6-3.709-4.805a19.434,19.434,0,0,0-15.747,0c-2.392,1.21-3.709,2.917-3.709,4.805a1.238,1.238,0,0,0,2.475,0c0-.894.857-1.841,2.351-2.6a17.006,17.006,0,0,1,13.513,0c1.494.756,2.351,1.7,2.351,2.6Z" transform="translate(2476.912 -21297.107)" fill="#fff"/>
    <path id="Path_37747" data-name="Path 37747" d="M311.829,119.55c-4.2,0-7.36,1.864-7.36,4.335a1.238,1.238,0,0,0,2.475,0c0-.656,1.855-1.86,4.885-1.86s4.885,1.2,4.885,1.86a1.238,1.238,0,1,0,2.475,0c0-2.471-3.164-4.335-7.36-4.335Z" transform="translate(2455.01 -21331.445)" fill="#fff"/>
  </g>
</svg>
