<svg xmlns="http://www.w3.org/2000/svg" width="30.547" height="79.132" viewBox="0 0 30.547 79.132">
  <g id="mob-wifi-disconnect" transform="translate(20564 -4356)">
    <text id="_" data-name="" transform="translate(-20561 4377)" fill="#fff" font-size="24" font-family="icofont, IcoFont"><tspan x="0" y="0"></tspan></text>
    <path id="Path_37744" data-name="Path 37744" d="M273.678,172.2H256.107a6.5,6.5,0,0,0-6.488,6.488V219.8a6.5,6.5,0,0,0,6.488,6.488h17.571a6.5,6.5,0,0,0,6.488-6.488V178.688a6.5,6.5,0,0,0-6.488-6.488Zm-21.73,45.368V180.794h25.884v36.774Zm4.157-43.033h17.572a4.163,4.163,0,0,1,4.152,3.933H251.954a4.163,4.163,0,0,1,4.152-3.933Zm17.571,49.424H256.106a4.162,4.162,0,0,1-4.156-4.061h25.884a4.162,4.162,0,0,1-4.156,4.061Z" transform="translate(-20813.619 4208.847)" fill="#fff"/>
  </g>
</svg>
