<svg xmlns="http://www.w3.org/2000/svg" width="41.76" height="41.76" viewBox="0 0 41.76 41.76">
  <g id="notes" transform="translate(220.943 -28.621) rotate(135)">
    <path id="Path_38167" data-name="Path 38167" d="M176.194,91.973a.914.914,0,0,0-.64-.274H162.619a.915.915,0,0,0-.915.915v12.935a.914.914,0,0,0,.274.64l14.235,14.235a2.745,2.745,0,0,0,3.879,0l10.338-10.3a2.745,2.745,0,0,0,0-3.879Zm12.935,16.814-10.356,10.356a.914.914,0,0,1-1.3,0l-13.942-13.979V93.528h11.637l13.961,13.961h0a.914.914,0,0,1,.018,1.3Z" transform="translate(0 0)" fill="#fff"/>
    <path id="Path_38168" data-name="Path 38168" d="M223.5,151.67a1.829,1.829,0,1,0,1.294.536A1.83,1.83,0,0,0,223.5,151.67Z" transform="translate(-55.262 -55.268)" fill="#fff"/>
  </g>
</svg>
