<svg xmlns="http://www.w3.org/2000/svg" width="45.724" height="67.061" viewBox="0 0 45.724 67.061">
  <g id="pendrive" transform="translate(12431.912 -9774)">
    <path id="Path_38107" data-name="Path 38107" d="M182.615,23.328a1.525,1.525,0,0,0-1.524,1.524V38.569h-4.572a1.525,1.525,0,0,0-1.524,1.524V85.816a4.6,4.6,0,0,0,4.572,4.572h13.8a1.524,1.524,0,0,0,0-3.049h-13.8a1.489,1.489,0,0,1-1.524-1.524v-44.2h27.433V58.382a1.524,1.524,0,1,0,3.048,0V40.093A1.525,1.525,0,0,0,207,38.569h-4.572V24.852a1.525,1.525,0,0,0-1.524-1.524Zm1.524,3.048H199.38V38.569H184.139Z" transform="translate(-12606.906 9750.672)" fill="#fff"/>
    <path id="Path_38108" data-name="Path 38108" d="M269.856,70a1.524,1.524,0,0,0-1.524,1.524v3.048a1.524,1.524,0,1,0,3.048,0V71.524A1.524,1.524,0,0,0,269.856,70Z" transform="translate(-12688.051 9710.097)" fill="#fff"/>
    <path id="Path_38109" data-name="Path 38109" d="M316.52,70A1.524,1.524,0,0,0,315,71.524v3.048a1.524,1.524,0,0,0,3.048,0V71.524A1.524,1.524,0,0,0,316.52,70Z" transform="translate(-12728.619 9710.097)" fill="#fff"/>
    <path id="Path_38110" data-name="Path 38110" d="M246.52,198.33a1.524,1.524,0,0,0,0,3.049h12.193a1.524,1.524,0,0,0,0-3.049Z" transform="translate(-12667.764 9598.532)" fill="#fff"/>
    <path id="Path_38111" data-name="Path 38111" d="M328.717,326.67a13.717,13.717,0,1,0,13.717,13.717A13.74,13.74,0,0,0,328.717,326.67Zm0,3.048a10.669,10.669,0,1,1-10.669,10.669A10.646,10.646,0,0,1,328.717,329.718Z" transform="translate(-12728.622 9486.957)" fill="#fff"/>
    <path id="Path_38112" data-name="Path 38112" d="M378.506,391.618l-5.034,6.29-3.367-3.366a1.524,1.524,0,0,0-2.155,2.155l4.572,4.572a1.524,1.524,0,0,0,2.268-.125l6.1-7.62a1.524,1.524,0,0,0-.238-2.143,1.6,1.6,0,0,0-2.143.238Z" transform="translate(-12774.268 9430.963)" fill="#fff"/>
  </g>
</svg>
