<svg xmlns="http://www.w3.org/2000/svg" width="45.724" height="67.061" viewBox="0 0 45.724 67.061">
  <g id="pendrive_disconnect" transform="translate(12765.912 -9448.271)">
    <path id="Path_38107" data-name="Path 38107" d="M182.615,23.328a1.525,1.525,0,0,0-1.524,1.524V38.569h-4.572a1.525,1.525,0,0,0-1.524,1.524V85.816a4.6,4.6,0,0,0,4.572,4.572h13.8a1.524,1.524,0,0,0,0-3.049h-13.8a1.489,1.489,0,0,1-1.524-1.524v-44.2h27.433V58.382a1.524,1.524,0,1,0,3.048,0V40.093A1.525,1.525,0,0,0,207,38.569h-4.572V24.852a1.525,1.525,0,0,0-1.524-1.524Zm1.524,3.048H199.38V38.569H184.139Z" transform="translate(-12940.906 9424.942)" fill="#fff"/>
    <path id="Path_38108" data-name="Path 38108" d="M269.856,70a1.524,1.524,0,0,0-1.524,1.524v3.048a1.524,1.524,0,1,0,3.048,0V71.524A1.524,1.524,0,0,0,269.856,70Z" transform="translate(-13022.051 9384.367)" fill="#fff"/>
    <path id="Path_38109" data-name="Path 38109" d="M316.52,70A1.524,1.524,0,0,0,315,71.524v3.048a1.524,1.524,0,0,0,3.048,0V71.524A1.524,1.524,0,0,0,316.52,70Z" transform="translate(-13062.619 9384.367)" fill="#fff"/>
    <path id="Path_38110" data-name="Path 38110" d="M246.52,198.33a1.524,1.524,0,0,0,0,3.049h12.193a1.524,1.524,0,0,0,0-3.049Z" transform="translate(-13001.764 9272.803)" fill="#fff"/>
    <path id="Path_38111" data-name="Path 38111" d="M328.717,326.67a13.717,13.717,0,1,0,13.717,13.717A13.74,13.74,0,0,0,328.717,326.67Zm0,3.048a10.669,10.669,0,1,1-10.669,10.669A10.646,10.646,0,0,1,328.717,329.718Z" transform="translate(-13062.622 9161.228)" fill="#fff"/>
    <text id="_" data-name="" transform="translate(-12742.908 9508.61)" fill="#fff" font-size="18" font-family="icofont, IcoFont"><tspan x="0" y="0"></tspan></text>
  </g>
</svg>
