<svg xmlns="http://www.w3.org/2000/svg" width="23.811" height="23.204" viewBox="0 0 23.811 23.204">
  <path id="reset-distance" d="M163.589,74.128a.72.72,0,0,1-.715.628h-.1l-2.248-.295a11.6,11.6,0,1,1-9.136-4.467.725.725,0,1,1,0,1.45,10.151,10.151,0,1,0,7.879,3.756l-.121,2.8a.725.725,0,0,1-.72.691H158.4a.716.716,0,0,1-.691-.754l.193-4.5h0a.074.074,0,0,1,0-.034.371.371,0,0,1,0-.073v-.1a.072.072,0,0,1,0-.029.767.767,0,0,1,.044-.087.651.651,0,0,1,.068-.092.7.7,0,0,1,.15-.131.686.686,0,0,1,.1-.058l.1-.034h.285l4.249.566h0a.725.725,0,0,1,.7.759Z" transform="translate(-139.778 -69.995)" fill="#fff"/>
</svg>
