<svg xmlns="http://www.w3.org/2000/svg" width="37.298" height="37.3" viewBox="0 0 37.298 37.3">
  <g id="rotate" transform="translate(-9485 19445)">
    <g id="Group_160475" data-name="Group 160475" transform="translate(9485 -19445)">
      <path id="Path_38134" data-name="Path 38134" d="M182.466,268.8a.88.88,0,0,0-.879.879A16.909,16.909,0,0,1,164.7,286.57a16.74,16.74,0,0,1-12.724-5.789h2.456a.879.879,0,0,0,0-1.758h-4.44a.879.879,0,0,0-.877.814l-.326,4.358a.88.88,0,0,0,.811.943l.066,0a.879.879,0,0,0,.876-.814l.173-2.315a18.479,18.479,0,0,0,13.984,6.318,18.671,18.671,0,0,0,18.649-18.649.879.879,0,0,0-.879-.879Z" transform="translate(-146.047 -251.03)" fill="#fff"/>
      <path id="Path_38135" data-name="Path 38135" d="M132.581,44.215a16.745,16.745,0,0,1,12.578,5.626h-2.547a.879.879,0,1,0,0,1.758h4.439a.879.879,0,0,0,.877-.814l.326-4.358A.879.879,0,1,0,146.5,46.3l-.166,2.222a18.644,18.644,0,0,0-32.4,12.588.879.879,0,0,0,1.758,0,16.91,16.91,0,0,1,16.891-16.891Z" transform="translate(-113.931 -42.456)" fill="#fff"/>
    </g>
    <g id="noun-camera-5126651" transform="translate(9494.421 -19433.695)">
      <path id="Path_38136" data-name="Path 38136" d="M269.346,218.673a3.423,3.423,0,1,1-3.423-3.423,3.423,3.423,0,0,1,3.423,3.423" transform="translate(-256.681 -210.458)" fill="#fff"/>
      <path id="Path_38137" data-name="Path 38137" d="M130.591,94.6h-4.176v-.89a.936.936,0,0,0-.958-.958h-4.929a.936.936,0,0,0-.958.958v.89h-4.176a1.622,1.622,0,0,0-1.643,1.643v9.516a1.666,1.666,0,0,0,1.643,1.643h15.13a1.666,1.666,0,0,0,1.643-1.643V96.242A1.528,1.528,0,0,0,130.591,94.6Zm-7.6,10.611a4.245,4.245,0,1,1,4.245-4.245A4.266,4.266,0,0,1,122.992,105.21Z" transform="translate(-113.75 -92.75)" fill="#fff"/>
    </g>
  </g>
</svg>
