<svg xmlns="http://www.w3.org/2000/svg" width="71.06" height="71.059" viewBox="0 0 71.06 71.059">
  <path id="satellite" d="M117.354,50.648l6.189,6.189,4.705-4.705-6.189-6.189-1.181,1.182a.547.547,0,1,1-.774-.774l1.181-1.182L115.1,38.981l-1.182,1.181a.547.547,0,1,1-.774-.774l1.182-1.181-6.189-6.189-4.705,4.705,6.189,6.189,1.966-1.966a.547.547,0,1,1,.773.774l-1.965,1.965,6.189,6.189,1.965-1.965a.547.547,0,0,1,.774.773Zm-5.478,3.931,3.921-3.921-6.189-6.189-3.921,3.921Zm.774.774,6.188,6.188,3.921-3.921-6.189-6.189Zm-7.736-7.736,3.921-3.921-6.189-6.189-3.921,3.921Zm22.5,13.088-4.705,4.705,1.548,1.547,1.965-1.966a.547.547,0,1,1,.774.774l-1.966,1.965,6.963,6.963,3.921-3.921.785-.784,7.057-7.057L142.2,61.383l-.773-.774-4.642-4.642-8.239,8.239a.547.547,0,0,1-.774-.774l8.239-8.239-1.547-1.547ZM146.74,81.6l-3.921,3.921,6.189,6.189,3.921-3.921Zm.784-.784,6.189,6.189,1.966-1.966a.547.547,0,1,1,.773.774l-1.965,1.965,6.188,6.189,4.705-4.705-6.189-6.189-1.181,1.182a.547.547,0,0,1-.774-.774l1.182-1.181-6.189-6.189-1.182,1.181a.547.547,0,1,1-.773-.773l1.181-1.182-6.189-6.189-4.7,4.705,6.188,6.189,1.966-1.966a.547.547,0,0,1,.774.774Zm-1.558.01-6.189-6.189-3.921,3.921,6.189,6.189Zm13.924,13.924L153.7,88.563l-3.921,3.921,6.189,6.189Zm-21.66-21.66-.773-.774-6.273,6.273a2.2,2.2,0,0,1-3.116.022l-.239-.239a6.072,6.072,0,0,1-1.732,3.757,1.1,1.1,0,0,1-1.557.01l-9.283-9.283a1.1,1.1,0,0,1,.011-1.558,6.072,6.072,0,0,1,3.757-1.732l-.239-.239a2.2,2.2,0,0,1,.021-3.115l6.273-6.273-.774-.774-3.921,3.921a2.2,2.2,0,0,1-3.116.021L97.157,43a2.2,2.2,0,0,1,.021-3.116l9.41-9.41a2.2,2.2,0,0,1,3.115-.021l20.113,20.113a2.2,2.2,0,0,1-.021,3.115L125.875,57.6l.773.773,6.273-6.273a2.2,2.2,0,0,1,3.116-.021l.207.207a2.233,2.233,0,0,1,.577-.991l4.7-4.7a2.2,2.2,0,0,1,3.116-.022l.518.519a6.538,6.538,0,0,1,5.153,5.152l.518.518a2.2,2.2,0,0,1-.021,3.116L146.1,60.578a2.231,2.231,0,0,1-.991.577l.207.207a2.2,2.2,0,0,1-.021,3.115l-6.273,6.273.774.774L143.72,67.6a2.2,2.2,0,0,1,3.116-.021l20.113,20.113a2.2,2.2,0,0,1-.022,3.116l-9.41,9.41a2.2,2.2,0,0,1-3.116.021L134.289,80.129a2.2,2.2,0,0,1,.021-3.115ZM143,59.041,138.358,54.4l-.784.784,4.642,4.642Zm.784-.784.774.773,4.705-4.7-6.189-6.189-4.705,4.7.774.774Zm-12.578,17.22-9.283-9.283-1.568,1.568,9.283,9.283Zm-8.245-3.54a1.072,1.072,0,0,1-1.211.243,4.787,4.787,0,0,0-4.027.009l7.488,7.488a4.788,4.788,0,0,0,.009-4.026,1.07,1.07,0,0,1,.243-1.211Z" transform="translate(-96.523 -29.816)" fill="#fff"/>
</svg>
