<svg xmlns="http://www.w3.org/2000/svg" width="30.301" height="30.521" viewBox="0 0 30.301 30.521">
  <path id="settings" d="M109.49,29.459c-.253.073-.5.153-.744.243a.524.524,0,0,1-.475-.063c-.418-.3-1.043-.741-1.488-1.054a1.552,1.552,0,0,0-1.694-.067h0a15.244,15.244,0,0,0-2.079,1.5l0,0a1.556,1.556,0,0,0-.458,1.655c.166.512.4,1.223.551,1.7a.527.527,0,0,1-.083.478c-.143.183-.279.372-.412.565a.512.512,0,0,1-.425.226l-1.83.01a1.557,1.557,0,0,0-1.422.944v0a15.318,15.318,0,0,0-.791,2.443v0a1.556,1.556,0,0,0,.608,1.6l1.492,1.08a.53.53,0,0,1,.216.429v.206l.007.4a.522.522,0,0,1-.216.439l-1.455,1.054a1.559,1.559,0,0,0-.6,1.619v0a15.319,15.319,0,0,0,.837,2.479,0,0,0,0,0,0,0,1.557,1.557,0,0,0,1.412.921l1.887.01a.52.52,0,0,1,.418.216c.1.143.209.286.319.425a.523.523,0,0,1,.086.482c-.156.482-.382,1.183-.548,1.692a1.557,1.557,0,0,0,.465,1.659l0,0a15.52,15.52,0,0,0,2.2,1.562,0,0,0,0,1,0,0,1.557,1.557,0,0,0,1.678-.08c.452-.322,1.1-.778,1.525-1.08a.512.512,0,0,1,.468-.067c.159.053.319.106.482.153a.516.516,0,0,1,.345.332c.163.485.405,1.2.578,1.718a1.561,1.561,0,0,0,1.335,1.057c.448.04.9.06,1.362.06s.913-.02,1.358-.06h0a1.564,1.564,0,0,0,1.339-1.057c.173-.515.412-1.233.575-1.718a.516.516,0,0,1,.345-.332c.163-.047.322-.1.482-.153a.523.523,0,0,1,.468.067c.425.3,1.073.761,1.528,1.08a1.551,1.551,0,0,0,1.674.077h0a15.276,15.276,0,0,0,2.2-1.559l0,0a1.56,1.56,0,0,0,.465-1.662c-.166-.508-.392-1.21-.548-1.692a.525.525,0,0,1,.086-.482c.11-.14.213-.279.316-.425a.524.524,0,0,1,.418-.219l1.887-.01a1.554,1.554,0,0,0,1.408-.917v0a15.334,15.334,0,0,0,.844-2.479v0a1.556,1.556,0,0,0-.6-1.622l-1.455-1.054a.525.525,0,0,1-.216-.435c0-.133.007-.266.007-.4v-.206a.513.513,0,0,1,.216-.429l1.492-1.08a1.553,1.553,0,0,0,.6-1.6v0a15.2,15.2,0,0,0-.784-2.446v0a1.557,1.557,0,0,0-1.425-.944l-1.827-.01a.52.52,0,0,1-.425-.226c-.133-.193-.269-.382-.412-.565a.516.516,0,0,1-.083-.479c.156-.482.389-1.2.551-1.708a1.557,1.557,0,0,0-.458-1.652l0,0a15.757,15.757,0,0,0-2.076-1.506,0,0,0,0,1,0,0,1.552,1.552,0,0,0-1.7.07c-.445.316-1.066.758-1.485,1.054a.517.517,0,0,1-.475.067c-.243-.086-.492-.166-.744-.239a.521.521,0,0,1-.349-.332c-.159-.482-.4-1.193-.571-1.7a1.56,1.56,0,0,0-1.345-1.057c-.422-.033-.85-.053-1.282-.053s-.857.017-1.279.05h0a1.56,1.56,0,0,0-1.345,1.057c-.169.508-.409,1.22-.571,1.7a.533.533,0,0,1-.352.332Zm.286,1a1.558,1.558,0,0,0,1.046-1c.163-.479.4-1.19.571-1.7a.52.52,0,0,1,.448-.352c.4-.03.794-.047,1.2-.047s.8.017,1.2.05a.519.519,0,0,1,.448.352c.173.508.409,1.22.571,1.7a1.553,1.553,0,0,0,1.046,1c.229.067.455.14.681.219a1.548,1.548,0,0,0,1.425-.2l1.488-1.054a.519.519,0,0,1,.565-.023,14.413,14.413,0,0,1,1.933,1.4.518.518,0,0,1,.153.548c-.166.512-.4,1.223-.551,1.7a1.548,1.548,0,0,0,.253,1.436c.13.166.256.339.375.515a1.557,1.557,0,0,0,1.279.678l1.83.01a.519.519,0,0,1,.475.313,13.938,13.938,0,0,1,.728,2.27.518.518,0,0,1-.2.532c-.445.326-1.07.778-1.488,1.08a1.561,1.561,0,0,0-.644,1.286v.189l-.007.369a1.567,1.567,0,0,0,.644,1.313l1.455,1.054a.522.522,0,0,1,.2.538,14.043,14.043,0,0,1-.784,2.3.524.524,0,0,1-.468.306h0c-.561,0-1.358.01-1.884.01a1.552,1.552,0,0,0-1.259.655c-.093.13-.189.259-.289.386a1.563,1.563,0,0,0-.256,1.442c.156.479.382,1.183.548,1.692a.522.522,0,0,1-.153.552,14.791,14.791,0,0,1-2.046,1.449.521.521,0,0,1-.558-.027c-.455-.319-1.1-.778-1.525-1.077a1.556,1.556,0,0,0-1.405-.2q-.214.075-.438.14a1.555,1.555,0,0,0-1.036,1c-.163.482-.405,1.2-.578,1.718a.52.52,0,0,1-.445.352c-.418.037-.844.053-1.272.053s-.85-.02-1.269-.057a.52.52,0,0,1-.445-.352c-.173-.515-.415-1.233-.578-1.718a1.566,1.566,0,0,0-1.036-1q-.219-.065-.438-.14a1.551,1.551,0,0,0-1.4.2c-.425.3-1.07.758-1.525,1.08a.521.521,0,0,1-.558.027,14.787,14.787,0,0,1-2.046-1.452.521.521,0,0,1-.153-.552c.163-.508.392-1.21.548-1.692a1.563,1.563,0,0,0-.256-1.442c-.1-.126-.2-.256-.289-.386a1.54,1.54,0,0,0-1.259-.651l-1.887-.01a.521.521,0,0,1-.472-.306,14.228,14.228,0,0,1-.781-2.3.526.526,0,0,1,.2-.538c.435-.319,1.04-.754,1.452-1.054a1.559,1.559,0,0,0,.644-1.313c0-.123-.007-.246-.007-.369v-.189a1.562,1.562,0,0,0-.644-1.286l-1.492-1.08a.515.515,0,0,1-.2-.532,14.232,14.232,0,0,1,.731-2.27.515.515,0,0,1,.472-.313c.548,0,1.312-.01,1.827-.01A1.556,1.556,0,0,0,103.455,35c.12-.176.246-.349.375-.515a1.557,1.557,0,0,0,.249-1.436c-.156-.482-.385-1.193-.551-1.708a.524.524,0,0,1,.153-.552,14.716,14.716,0,0,1,1.937-1.4.514.514,0,0,1,.561.023c.445.313,1.07.754,1.488,1.05a1.552,1.552,0,0,0,1.428.193c.225-.062.451-.135.68-.2Zm3.262,4.45a6.468,6.468,0,1,0,6.464,6.468A6.469,6.469,0,0,0,113.038,34.906Zm0,1.037a5.431,5.431,0,1,1-5.428,5.431A5.431,5.431,0,0,1,113.038,35.943Z" transform="translate(-97.885 -26.118)" fill="#fff" stroke="#fff" stroke-width="0.4"/>
</svg>
