<svg xmlns="http://www.w3.org/2000/svg" width="39" height="24.002" viewBox="0 0 39 24.002">
  <g id="sound-frequency-off" transform="translate(-46 -328)">
    <path id="Subtraction_25" data-name="Subtraction 25" d="M-4448.5,18297c-1.308,0-2.576-1.021-3.569-2.873a18.523,18.523,0,0,1-1.855-7.129h2.01a17.528,17.528,0,0,0,1.344,5.652c.744,1.623,1.576,2.348,2.071,2.348s1.327-.725,2.071-2.348a17.515,17.515,0,0,0,1.345-5.652h2.009a18.521,18.521,0,0,1-1.855,7.129C-4445.924,18295.98-4447.192,18297-4448.5,18297Zm-12.5,0c-1.189,0-2.342-1.021-3.246-2.873a20.022,20.022,0,0,1-1.686-7.129h2a19.3,19.3,0,0,0,1.237,5.717c.712,1.709,1.458,2.283,1.69,2.283s.978-.574,1.689-2.283a19.279,19.279,0,0,0,1.233-5.717h2.009a20.011,20.011,0,0,1-1.686,7.129C-4458.657,18295.98-4459.81,18297-4461,18297Zm-12,0c-1.189,0-2.341-1.021-3.243-2.873a20.013,20.013,0,0,1-1.684-7.129h2a19.2,19.2,0,0,0,1.237,5.717c.712,1.709,1.456,2.283,1.686,2.283s.978-.574,1.694-2.283a19.282,19.282,0,0,0,1.233-5.717h2a20,20,0,0,1-1.684,7.129C-4470.658,18295.98-4471.812,18297-4473,18297Zm21.087-14h0l-2.008,0a18.53,18.53,0,0,1,1.854-7.129c.995-1.852,2.263-2.871,3.57-2.871s2.576,1.02,3.57,2.871a18.531,18.531,0,0,1,1.855,7.127l-2.01,0a17.5,17.5,0,0,0-1.345-5.652c-.744-1.621-1.576-2.346-2.071-2.346s-1.327.725-2.071,2.346a17.515,17.515,0,0,0-1.345,5.652Zm-12.01,0h0l-2,0a19.991,19.991,0,0,1,1.686-7.129c.9-1.852,2.057-2.871,3.246-2.871s2.342,1.02,3.246,2.871a20.011,20.011,0,0,1,1.686,7.127l-2.008,0a19.312,19.312,0,0,0-1.233-5.717c-.711-1.707-1.458-2.281-1.689-2.281s-.978.574-1.69,2.281a19.3,19.3,0,0,0-1.237,5.717Zm-12,0h0l-2,0a20.035,20.035,0,0,1,1.683-7.129c.9-1.852,2.056-2.871,3.244-2.871s2.344,1.02,3.248,2.871a20.012,20.012,0,0,1,1.684,7.127l-2,0a19.268,19.268,0,0,0-1.233-5.717c-.716-1.707-1.463-2.281-1.694-2.281s-.974.574-1.686,2.281a19.2,19.2,0,0,0-1.237,5.717Z" transform="translate(4526 -17945)" fill="#fff"/>
    <rect id="Rectangle_147990" data-name="Rectangle 147990" width="39" height="2.2" transform="translate(46 339)" fill="#fff"/>
  </g>
</svg>
