<svg xmlns="http://www.w3.org/2000/svg" width="77.321" height="77.321" viewBox="0 0 77.321 77.321">
  <g id="stop" transform="translate(-35 -195)">
    <path id="Path_37690" data-name="Path 37690" d="M134.48,25.82a38.66,38.66,0,1,0,38.66,38.66A38.66,38.66,0,0,0,134.48,25.82Zm0,74.065a35.4,35.4,0,1,1,35.4-35.4A35.444,35.444,0,0,1,134.48,99.885Z" transform="translate(-60.82 169.18)" fill="#fff"/>
    <path id="stop-2" data-name="stop" d="M163.023,87.5H179.34a5.932,5.932,0,0,1,5.522,5.522v16.317a5.522,5.522,0,0,1-5.522,5.522H163.023a5.932,5.932,0,0,1-5.522-5.522V93.022A5.522,5.522,0,0,1,163.023,87.5Z" transform="translate(-97.501 132.5)" fill="#e00000"/>
  </g>
</svg>
