<svg xmlns="http://www.w3.org/2000/svg" width="22.572" height="28.352" viewBox="0 0 22.572 28.352">
  <g id="upload" transform="translate(-4790.022 18471.999)">
    <path id="Path_37718" data-name="Path 37718" d="M164.274,127.142h-2.146a.705.705,0,1,0,0,1.411h2.146c.781,0,1.44.969,1.44,2.116v15.518A2.119,2.119,0,0,1,163.6,148.3H148.08a2.119,2.119,0,0,1-2.116-2.116V130.669c0-1.127.646-2.116,1.381-2.116h2.087a.705.705,0,1,0,0-1.411h-2.087c-1.54,0-2.792,1.582-2.792,3.527v15.518a3.531,3.531,0,0,0,3.527,3.527H163.6a3.531,3.531,0,0,0,3.527-3.527V130.669c0-1.945-1.279-3.527-2.851-3.527Z" transform="translate(4645.469 -18593.361)" fill="#fff"/>
    <path id="Path_37719" data-name="Path 37719" d="M283.264,26.165l1.823-1.823V40.7a.705.705,0,1,0,1.411,0V24.343l1.823,1.823a.705.705,0,0,0,1-1l-3.027-3.027a.7.7,0,0,0-1,0l-3.027,3.027a.705.705,0,0,0,1,1Z" transform="translate(4515.516 -18493.934)" fill="#fff"/>
  </g>
</svg>
