<svg xmlns="http://www.w3.org/2000/svg" width="35.231" height="31.227" viewBox="0 0 35.231 31.227">
  <path id="device" d="M121.215,61.6a18.809,18.809,0,0,0-9.608,2.5.8.8,0,1,0,.8,1.388,18.087,18.087,0,0,1,17.615,0,.8.8,0,1,0,.8-1.389,18.808,18.808,0,0,0-9.608-2.5Zm0,3.6a12.67,12.67,0,0,0-7.682,2.552.8.8,0,1,0,.951,1.289,11.234,11.234,0,0,1,13.461,0,.8.8,0,1,0,.951-1.288,12.67,12.67,0,0,0-7.682-2.552Zm0,3.6a7.717,7.717,0,0,0-4.917,1.777.8.8,0,0,0,1.026,1.239,6.062,6.062,0,0,1,7.782,0,.8.8,0,1,0,1.026-1.239,7.717,7.717,0,0,0-4.917-1.777Zm0,3.6a2.8,2.8,0,0,0-.8,5.48v2.928H106.8a3.214,3.214,0,0,0-3.2,3.2v5.6a3.214,3.214,0,0,0,3.2,3.2h12.811a.8.8,0,1,0,0-1.6H106.8a1.581,1.581,0,0,1-1.6-1.6v-5.6a1.581,1.581,0,0,1,1.6-1.6h13.612v1.6a.8.8,0,1,0,1.6,0v-1.6h13.612a1.581,1.581,0,0,1,1.6,1.6v5.6a1.581,1.581,0,0,1-1.6,1.6H122.817a.8.8,0,1,0,0,1.6h12.811a3.214,3.214,0,0,0,3.2-3.2v-5.6a3.214,3.214,0,0,0-3.2-3.2H122.016V77.89a2.8,2.8,0,0,0-.8-5.48Zm0,1.6a1.2,1.2,0,1,1-1.2,1.2A1.189,1.189,0,0,1,121.215,74.011Zm4.4,10.009a2.8,2.8,0,1,0,2.8,2.8A2.815,2.815,0,0,0,125.619,84.02Zm7.206,0a2.8,2.8,0,1,0,2.8,2.8A2.815,2.815,0,0,0,132.826,84.02Zm-7.206,1.6a1.2,1.2,0,1,1-1.2,1.2A1.189,1.189,0,0,1,125.619,85.621Zm7.206,0a1.2,1.2,0,1,1-1.2,1.2A1.189,1.189,0,0,1,132.826,85.621Zm-25.3.4a.8.8,0,0,0,.075,1.6h5.6a.8.8,0,1,0,0-1.6h-5.68Z" transform="translate(-103.6 -61.601)" fill="#fff"/>
</svg>
